<?xml version="1.0" encoding="UTF-8"?>
<svg width="190px" height="42px" viewBox="0 0 190 42" version="1.1" xmlns="http://www.w3.org/2000/svg" xmlns:xlink="http://www.w3.org/1999/xlink">
    <!-- Generator: Sketch 50.2 (55047) - http://www.bohemiancoding.com/sketch -->
    <title>Group 5@1x</title>
    <desc>Created with Sketch.</desc>
    <defs/>
    <g id="Page-1" stroke="none" stroke-width="1" fill="none" fill-rule="evenodd">
        <g id="Sticky-Menu" transform="translate(-135.000000, -19.000000)">
            <g id="Group-5" transform="translate(135.000000, 19.000000)">
                <path d="M138.484171,8.48559438 C132.953684,10.2555646 126.303515,11.634075 121.062244,8.19959636 C120.890288,8.08698465 120.308997,7.46636895 120.119166,7.45814651 C120.148481,7.4595765 120.177438,7.4595765 120.206395,7.4602915 C127.417835,7.7773918 134.893823,3.15888137 140.578749,1.25985456 C146.040238,-0.564812773 152.165243,-0.283462227 157.555948,1.30883172 C162.185899,2.67697471 166.111936,4.45659736 170.725442,7.10279398 C174.409811,9.2159618 176.895492,12.3765974 181.317021,11.1907781 C184.369335,10.3721088 188.041907,11.5908178 189.214499,12.7483948 C189.685323,13.2131415 189.924131,13.6521485 189.924131,13.6521485 C189.924131,13.6521485 185.579464,11.4964385 180.146216,17.2417811 C176.822562,20.7563392 172.351341,22.1512945 165.683654,24.1475606 C160.369096,25.7387821 154.236226,27.2459916 154.236226,27.2459916 C158.172989,25.3559022 159.134657,24.8196559 161.443019,23.0875805 C165.745501,19.8590204 166.6371,18.4444027 166.6371,18.4444027 C161.024032,19.9008476 157.058312,18.187362 157.058312,18.187362 C157.058312,18.187362 159.598332,18.3761207 162.391102,16.3623372 C164.706614,14.6942538 168.976564,14.1919697 168.976564,14.1919697 C168.976564,14.1919697 162.896961,13.075505 157.883416,15.5247205 C150.049215,19.3520889 145.09573,15.5704802 145.09573,15.5704802 C145.09573,15.5704802 147.877418,15.527938 152.601748,13.0419002 C155.472095,11.5307582 165.27575,10.4228734 165.27575,10.4228734 C160.239682,9.68428355 154.324528,10.3402915 149.665621,11.8428536 C147.390864,12.5764385 145.328461,13.6185437 142.925005,13.936359 C141.045283,14.1851773 139.121946,14.1043829 137.276187,13.6657334 C136.366713,13.4490899 135.471182,13.1505795 134.624985,12.7516123 C134.453744,12.6708178 133.89712,12.2418208 133.711579,12.2618407 C136.145065,11.9987225 138.54137,11.3831118 140.81434,10.477928 C142.724806,9.71681583 144.591301,8.83236697 146.555392,8.21246627 C148.598848,7.56754075 150.703436,7.34803728 152.832334,7.2007483 C155.48282,7.01735207 158.152612,6.96908991 160.808103,7.06418425 C160.819901,7.06454175 160.832056,7.06525674 160.843853,7.06561424 C160.222522,7.04058941 159.55007,6.80821603 158.934816,6.70918921 C157.258153,6.43856359 155.285124,5.92126468 153.592016,5.7897056 C151.174618,5.6020194 148.728977,5.65671652 146.339821,6.09465098 C144.006077,6.52221801 141.807468,7.41417432 139.558093,8.13989428 C139.205601,8.25393599 138.847388,8.36940768 138.484171,8.48559438" id="Fill-1" fill="#007EB2"/>
                <path d="M0,38.2493744 L2.0009136,35.8698709 C3.81271102,37.4382125 5.62450844,38.3305263 7.9771996,38.3305263 C10.0328103,38.3305263 11.3308838,37.3842304 11.3308838,35.9510228 L11.3308838,35.8970407 C11.3308838,34.5446276 10.5733466,33.8146177 7.05807349,33.0030983 C3.02871897,32.0296326 0.757179742,30.8398808 0.757179742,27.3514201 L0.757179742,27.2974379 C0.757179742,24.0520755 3.46129096,21.8073486 7.22001986,21.8073486 C9.97847071,21.8073486 12.1692155,22.6456802 14.0889772,24.1872095 L12.3039921,26.7022046 C10.6005164,25.4313009 8.89668322,24.7552731 7.16603774,24.7552731 C5.21910626,24.7552731 4.08333664,25.7555511 4.08333664,26.9996425 L4.08333664,27.0539821 C4.08333664,28.514002 4.94883813,29.1632175 8.57243297,30.0283615 C12.5746177,31.0021847 14.6570407,32.4353923 14.6570407,35.572433 L14.6570407,35.6264151 C14.6570407,39.168858 11.8717776,41.2780933 7.89640516,41.2780933 C5.00282026,41.2780933 2.27153923,40.2778153 0,38.2493744" id="Fill-3" fill="#808184"/>
                <path d="M16.0873883,31.6510427 L16.0873883,31.5970606 C16.0873883,26.2152929 20.1167428,21.8073486 25.8499305,21.8073486 C29.3387488,21.8073486 31.4476266,23.0246276 33.259424,24.7552731 L31.1233764,27.2159285 C29.6090169,25.8095333 27.9863357,24.8632373 25.8231182,24.8632373 C22.1991658,24.8632373 19.5762066,27.8379742 19.5762066,31.542721 L19.5762066,31.5970606 C19.5762066,35.3018073 22.1991658,38.3305263 25.8231182,38.3305263 C28.1486395,38.3305263 29.6361867,37.3838729 31.2588679,35.8695134 L33.3949156,38.0330884 C31.4204568,40.0883416 29.2572393,41.3864151 25.7147964,41.3864151 C20.1978947,41.3864151 16.0873883,37.086435 16.0873883,31.6510427" id="Fill-5" fill="#808184"/>
                <polyline id="Fill-6" fill="#808184" points="57.1996028 22.1648461 60.5257597 22.1648461 60.5257597 38.0659782 70.4777756 38.0659782 70.4777756 41.0946971 57.1996028 41.0946971 57.1996028 22.1648461"/>
                <polyline id="Fill-7" fill="#808184" points="72.2144985 22.1648461 86.2494935 22.1648461 84.2085402 25.1395829 75.5406554 25.1395829 75.5406554 30.0616087 85.032572 30.0616087 85.032572 33.0359881 75.5406554 33.0359881 75.5406554 38.1199603 86.3849851 38.1199603 86.3849851 41.0946971 72.2144985 41.0946971 72.2144985 22.1648461"/>
                <polyline id="Fill-8" fill="#808184" points="90.8043694 22.1648461 105.108918 22.1648461 104.136167 23.4629196 92.2104071 23.4629196 92.2104071 31.2241907 100.973386 31.2241907 100.295571 32.5222642 92.2104071 32.5222642 92.2104071 41.0946971 90.8043694 41.0946971 90.8043694 22.1648461"/>
                <path d="M115.97005,34.6586693 L110.994399,23.7060179 L105.990864,34.6586693 L115.97005,34.6586693 Z M110.344826,22.1648461 L111.697239,22.1648461 L120.513486,41.2298312 L118.971599,41.2298312 L116.564926,35.929573 L105.396346,35.929573 L102.989672,41.2298312 L101.529295,41.2298312 L110.344826,22.1648461 Z" id="Fill-9" fill="#808184"/>
                <path d="M122.979146,38.2493744 L123.89863,37.1947567 C125.98141,39.1148759 127.900814,40.0071897 130.686435,40.0071897 C133.526038,40.0071897 135.473327,38.4116783 135.473327,36.2484608 L135.473327,36.1941212 C135.473327,34.1932075 134.418352,33.0302681 130.118729,32.1647666 C125.575293,31.2456405 123.736326,29.7041112 123.736326,26.8376961 L123.736326,26.7833565 C123.736326,23.9709235 126.30566,21.8073486 129.820933,21.8073486 C132.579384,21.8073486 134.391539,22.5648858 136.311658,24.1060576 L135.418987,25.2146574 C133.634359,23.6734856 131.849374,23.0786097 129.766951,23.0786097 C126.982046,23.0786097 125.143078,24.6741212 125.143078,26.6482224 L125.143078,26.7022046 C125.143078,28.7034757 126.170169,29.9203972 130.659265,30.8398808 C135.040397,31.7321946 136.879364,33.3008937 136.879364,36.0589871 L136.879364,36.1129692 C136.879364,39.168858 134.256048,41.2780933 130.605283,41.2780933 C127.576564,41.2780933 125.251043,40.2778153 122.979146,38.2493744" id="Fill-10" fill="#808184"/>
                <polyline id="Fill-11" fill="#808184" points="145.665223 23.4629196 139.066534 23.4629196 139.066534 22.1648461 155.129255 22.1648461 153.669593 23.4629196 147.071619 23.4629196 147.071619 41.0946971 145.665223 41.0946971 145.665223 23.4629196"/>
                <polyline id="Fill-12" fill="#808184" points="46.0892949 22.1648461 43.0062363 22.1648461 34.6772592 41.2298312 38.084568 41.2298312 44.494141 26.1402185 47.7559484 33.7120159 50.9026415 41.2298312 54.4182721 41.2298312 46.0892949 22.1648461"/>
            </g>
        </g>
    </g>
</svg>